<svg id="logoGessi" xmlns="http://www.w3.org/2000/svg" width="88" height="48" viewBox="0 0 88 48" fill="#1a1a1a"><path d="M30.9698 5.51347H24.6037C14.4066 5.51347 5.63511 13.6148 5.63511 23.9818C5.63511 33.0341 13.5409 42.4501 23.3751 42.4501L25.2206 42.4242V27.0633H15.4486V21.5395H31.0009V48H24.6037C10.954 48 0 37.1497 0 24.013C0 10.8763 10.9695 0.0259787 24.5778 0.0259787H30.9801L30.9698 5.51347Z"/><path d="M74.7339 5.53945C68.6893 5.53945 69.8816 10.7827 71.7323 13.8538C73.2305 16.3118 74.7132 18.6502 76.4395 21.3836C80.0683 27.3959 82.142 33.0185 79.4151 38.6983C76.0973 45.594 70.7162 47.3504 64.3813 48V42.4606C68.4352 42.0396 72.0226 40.834 74.1688 36.3287C77.948 28.3988 65.4025 18.6086 64.4124 11.1777C63.2874 2.74895 70.9962 2.53735e-06 74.625 2.53735e-06H77.497V5.53945H74.7339Z"/><path d="M33.37 0H47.9114L47.9373 5.51348H39.1606V9.08347H44.0181V14.6177H39.1606V42.4605H47.9114V47.974H33.37V0Z"/><path d="M88 0H82.2923V47.974H88V0Z"/><path d="M60.291 5.53945C54.2464 5.53945 55.4387 10.7827 57.2894 13.8538C58.7876 16.3118 60.2703 18.6502 61.9966 21.3836C65.6255 27.3959 67.6991 33.0185 64.9723 38.6983C61.6544 45.594 56.2733 47.3504 49.9384 48V42.4606C53.9923 42.0396 57.5746 40.834 59.726 36.3287C63.5052 28.3988 50.9596 18.6086 49.9695 11.1777C48.8445 2.74895 56.5533 2.53735e-06 60.1822 2.53735e-06H63.049V5.53945H60.291Z"/></svg>
