<svg width="198" height="44" viewBox="0 0 198 44" fill="none" xmlns="http://www.w3.org/2000/svg"><mask id="mask0_11_2511" maskUnits="userSpaceOnUse" x="0" y="0" width="198" height="44"><path d="M197.459 0H0V44H197.459V0Z" fill="white"/></mask><g mask="url(#mask0_11_2511)"><path fill-rule="evenodd" clip-rule="evenodd" d="M14.3606 13.0166C12.386 13.0166 10.591 13.5666 8.9754 14.4834C7.53934 15.4 6.10328 16.8666 5.38524 18.3334H5.20573V0H0V42.9H5.20573V25.3C5.20573 24.3834 5.20573 23.4666 5.56475 22.7334C6.64181 19.8 9.15491 17.4166 12.5655 17.4166C17.4123 17.4166 19.2074 21.45 19.2074 26.0334V42.9H24.4131V25.4834C24.4131 15.5834 18.3098 13.0166 14.3606 13.0166Z" fill="#1B3A6B"/><path d="M33.5652 13.75H28.3594V43.0834H33.5652V13.75Z" fill="#1B3A6B"/><path fill-rule="evenodd" clip-rule="evenodd" d="M129.067 13.75L124.939 28.4166C124.041 31.9 123.322 35.0166 122.784 37.95H122.605C121.886 35.0166 121.169 31.9 120.091 28.4166L115.603 13.75H111.117L106.449 28.7834C105.551 31.9 104.474 35.0166 103.936 37.95H103.756C103.218 35.0166 102.5 31.9 101.602 28.6L97.8325 13.75H92.4473L101.064 43.0834H105.91L110.578 29.15C111.654 26.0334 112.552 22.9166 113.271 19.4334H113.449C114.168 22.9166 115.066 25.85 115.963 29.15L120.271 43.0834H124.939L134.273 13.75H129.067Z" fill="#1B3A6B"/><path fill-rule="evenodd" clip-rule="evenodd" d="M197.456 26.7656C197.456 21.449 194.942 13.0156 185.608 13.0156C178.249 13.0156 173.581 18.3323 172.325 25.4823H168.376L167.478 29.3323H172.145C172.325 37.949 177.53 43.0823 186.326 43.0823C190.993 43.0823 194.045 42.1656 196.02 41.249L195.122 37.399C193.147 38.3156 190.993 38.8656 187.223 38.8656C181.838 38.8656 177.53 36.6656 177.35 29.3323H197.815L197.456 26.7656ZM179.684 25.4823H177.171C177.53 21.8156 179.864 16.8656 185.249 16.8656C191.173 16.8656 192.608 22.1823 192.43 25.4823H179.684Z" fill="#1B3A6B"/><path fill-rule="evenodd" clip-rule="evenodd" d="M52.0589 13.0156C47.3917 13.0156 43.981 15.7656 42.545 18.5156H42.3655L42.0064 13.5656H37.6982V42.899H42.904V25.299C42.904 24.3823 43.0835 23.4656 43.263 22.7323C44.1605 19.799 46.8532 17.2323 50.2639 17.2323C55.1106 17.2323 56.9056 21.2656 56.9056 25.849V42.7156H62.1114V25.299C62.1114 15.5823 56.008 13.0156 52.0589 13.0156Z" fill="#1B3A6B"/><path fill-rule="evenodd" clip-rule="evenodd" d="M86.1668 17.4166C84.7307 15.2166 81.8586 13.0166 77.3708 13.0166C70.3701 13.0166 64.4463 18.8834 64.4463 28.7834C64.4463 37.5834 69.8315 43.6334 76.8323 43.6334C81.4995 43.6334 84.9102 41.0666 86.5258 37.7666H86.7053L86.8848 42.9H91.3724V0H86.1668V17.4166ZM86.1668 30.8C86.1668 31.7166 86.1668 32.2666 85.9873 33.1834C85.0897 37.2166 81.8586 39.6 78.2684 39.6C72.7037 39.6 69.8316 34.65 69.8316 28.7834C69.8316 22.3666 73.0626 17.6 78.4479 17.6C82.3971 17.6 85.2692 20.35 85.9873 23.65C86.1668 24.0166 86.1668 24.9334 86.1668 25.6666V30.8Z" fill="#1B3A6B"/><path fill-rule="evenodd" clip-rule="evenodd" d="M150.25 42.899H155.455V24.9323C155.455 19.0656 153.301 13.0156 144.506 13.0156C140.916 13.0156 137.325 14.1156 134.992 15.5823L136.248 19.0656C138.223 17.599 141.094 16.8656 143.787 16.8656C149.711 16.8656 150.25 21.2656 150.25 23.649V25.4823C137.863 25.4823 133.375 27.499 133.017 34.2823C132.838 38.499 135.889 42.899 141.813 42.899C143.608 42.899 145.223 42.5322 146.48 41.9822L146.839 38.1322C145.762 38.6822 144.685 39.049 143.248 39.049C140.556 39.049 138.582 38.3156 138.582 34.8323C138.582 29.149 142.531 29.3323 150.429 29.3323L150.25 42.899Z" fill="#1B3A6B"/><path fill-rule="evenodd" clip-rule="evenodd" d="M172.864 18.149L173.403 13.199C172.864 13.199 172.506 13.0156 171.967 13.0156C168.557 13.0156 165.325 15.5823 163.889 19.4323H163.71L163.35 13.5656H159.042V42.899H164.248V27.3156C164.248 26.399 164.248 25.4823 164.428 24.749C165.145 20.7156 167.838 17.9656 171.428 17.9656C172.326 18.149 172.326 17.9656 172.864 18.149Z" fill="#1B3A6B"/></g></svg>
