<svg  xmlns="http://www.w3.org/2000/svg" fill="none" viewBox="0 0 125 18"><path fill="#3DCD58" d="M0 17.71h121.688V.29H0v17.42Z"/><path fill="#fff" d="M120.553 1.266h-16.045v15.469h16.045V1.265Z"/><path fill="#3DCD58" d="M112.73 14.029h-5.287V4.073h3.307v7.629h1.98v2.327Z"/><path fill="#3DCD58" d="M119.061 14.021h-4.213l-3.665-5.693 3.847-4.255h4.031l-4.014 4.255 4.014 5.693Z"/><path fill="#fff" d="M51.293 5.585h-1.736v5.651h1.736V5.585ZM39.725 7.954h2.834l-2.834 2.359v.923h4.77v-.913h-2.842l2.851-2.37v-.846h-4.78v.847ZM33.608 7.107h-1.645v4.122h1.645V7.107ZM31.998 5.326v.998h1.635V5.312h-1.635v.014ZM27.087 7.163v4.073h1.628V7.954c.367-.035.707-.025 1.34-.025l.984.042.027-.864c-.35 0-1.763-.018-2.361-.018-.78.018-1.618.074-1.618.074ZM18.01 7.604c-.44-.522-1.189-.574-2.216-.598a22.69 22.69 0 0 0-2.797.135v.77a20.089 20.089 0 0 1 2.155-.206c.738 0 1.386.126 1.41.7v.322h-1.287c-1.845 0-2.66.28-2.66 1.231 0 1.315 1.495 1.357 2.842 1.357.913 0 1.82-.059 2.733-.118V9.892c.003-1.066.06-1.997-.18-2.288Zm-1.438 2.967c-.209.018-.755.05-1.14.05-.514 0-1.211 0-1.211-.589 0-.588.54-.65 1.07-.65h1.281v1.19ZM7.97 5.585H6.243v5.651h5.376v-1.022H7.97v-4.63ZM23.736 10.589a7.826 7.826 0 0 1-1.421.034c-.85-.066-.773-.682-.773-1.197v-2.33h-1.62v2.835c0 .998.517 1.396 2.2 1.396.858 0 1.725-.032 1.725-.032l1.516-.066V7.097h-1.627v3.492ZM36.937 5.585l-1.578.34v4.048c0 .773.182 1.256 1.23 1.256h1.796v-.773h-.847c-.406 0-.598-.158-.598-.574V7.937h1.445v-.84h-1.453l.005-1.512ZM76.3 7.03s-.847-.066-1.463-.066c-2.366 0-2.674 1.256-2.674 2.029v.273c0 1.887 1.537 2.11 3.017 2.11 1.12 0 2.75-.147 2.75-.147V5.302H76.3V7.03Zm0 3.475c-.165 0-.697.066-1.138.066-.78 0-1.361-.246-1.361-1.18V8.96c0-.939.58-1.18 1.361-1.18.441 0 .973.05 1.138.066v2.66ZM91.941 9.483v-.05c0-1.77-.424-2.41-2.852-2.41-1.9 0-2.873.399-2.873 1.862v.43c0 1.456.588 2.012 3.29 2.012.674.002 1.348-.034 2.019-.108v-.739c-.666.096-1.337.144-2.01.143-.797 0-1.622-.059-1.612-.985v-.157l4.038.002Zm-4.048-.69v-.29c0-.55.384-.857 1.231-.857.88 0 1.231.308 1.231.857v.29h-2.462ZM82.675 8.668c-1.08-.084-1.477-.091-1.477-.493 0-.531.948-.455 1.57-.455.575 0 1.68.108 1.68.108V7.09S83.268 7 82.321 7c-1.995 0-2.768.283-2.768 1.263 0 .531.381 1.263 2.236 1.33.773.024 1.23.1 1.23.492 0 .455-.671.492-1.403.492-.798 0-2.036-.15-2.036-.15v.739s1.578.15 2.418.15c.985 0 2.726 0 2.726-1.372-.015-.709-.527-1.167-2.049-1.275ZM57.085 5.585h-2.351l-3.29 2.684 3.142 2.967h2.526L53.688 8.27l3.398-2.684ZM96.728 7.006c-.857 0-1.723.034-1.723.034l-1.505.067v4.13h1.613V7.753c.474-.049.952-.06 1.428-.034.84.066.773.682.773 1.197v2.312h1.62V8.402c-.004-.987-.519-1.396-2.206-1.396ZM68.95 10.589a7.826 7.826 0 0 1-1.422.034c-.847-.066-.78-.672-.78-1.197v-2.33h-1.613v2.845c0 .985.507 1.386 2.201 1.386.857 0 1.724-.032 1.724-.032l1.505-.059v-4.13h-1.616v3.483ZM61.217 6.998c-.857 0-1.724.042-1.724.042l-1.497.057v4.132h1.613V7.754a8.552 8.552 0 0 1 1.42-.042c.848.074.781.683.781 1.205v2.32h1.613V8.394c-.005-.99-.52-1.397-2.206-1.397Z"/><path fill="#3DCD58" d="M123.835.195a.97.97 0 0 1 .902.59.968.968 0 1 1-.902-.59Zm0-.195a1.161 1.161 0 1 0 .005 2.323A1.161 1.161 0 0 0 123.835 0Z"/><path fill="#3DCD58" d="M124.264 1.561c-.155-.246-.217-.288-.291-.315a.357.357 0 0 0 .357-.355.31.31 0 0 0-.12-.246.644.644 0 0 0-.414-.088h-.426v1.246h.202v-.53h.118c.16 0 .222.064.375.335l.11.195h.247l-.158-.242Zm-.451-.46h-.246V.739h.229c.123 0 .32 0 .32.184 0 .185-.209.178-.303.178Z"/></svg>