<svg width="114" height="24" viewBox="0 0 114 24" fill="none" xmlns="http://www.w3.org/2000/svg">
<path fill-rule="evenodd" clip-rule="evenodd" d="M56.0111 23.3142H51.3993L51.397 9.60484L48.9813 9.58749V6.51722H51.2159V5.21802C51.2159 1.31508 53.2889 0 56.2889 0H59.1131V3.51869C56.6641 3.51869 55.9001 4.0441 55.9001 5.43995V6.52252H59.1938V9.60785H56.0111V23.3142ZM40.8753 0.153355H36.2628V23.3437H40.8753V0.153355ZM8.08896 4.28317H4.9938V11.2284H8.08896C10.4571 11.2284 12.5709 10.709 12.5709 7.7558C12.5709 4.80256 10.4594 4.28317 8.08896 4.28317ZM4.9938 23.511H0V0.31984H9.48633C15.2683 0.31984 17.5088 3.99026 17.5088 7.75806C17.5088 11.5259 15.2683 15.1963 9.48633 15.1963H4.9938V23.511ZM25.5981 9.52291C22.3724 9.52291 21.3978 12.2663 21.3978 15.0097C21.3978 17.7198 22.3724 20.4632 25.5981 20.4632C28.8586 20.4632 29.8332 17.7198 29.8332 15.0097C29.8332 12.2663 28.8586 9.52291 25.5981 9.52291ZM25.5981 24C20.1544 24 16.6259 20.4307 16.6259 15.0097C16.6259 9.55613 20.1544 5.98611 25.5981 5.98611C31.0766 5.98611 34.6043 9.55613 34.6043 15.0097C34.6043 20.43 31.0766 24 25.5981 24ZM42.846 0.31984H47.4586V4.1201H42.846V0.31984ZM47.4586 23.5102H42.846V6.71929H47.4586V23.5102ZM77.1916 23.831H81.7369V15.9217C81.7369 12.9662 82.9727 10.5685 86.351 10.5685C86.589 10.5742 86.8272 10.5667 87.0644 10.5459V6.64599C87.0644 6.64599 86.9889 6.47462 86.2559 6.4867C84.0145 6.52143 82.972 6.87548 82.0344 8.87149H81.7407V7.03854H77.1908L77.1916 23.831ZM63.017 15.0097C63.017 12.2663 63.9916 9.52291 67.2181 9.52291C70.4778 9.52291 71.4532 12.2663 71.4532 15.0097C71.4532 17.7198 70.4778 20.4632 67.2181 20.4632C63.9916 20.4632 63.017 17.7198 63.017 15.0097ZM58.2451 15.0097C58.2451 20.4307 61.7736 24 67.2181 24C72.6965 24 76.2243 20.43 76.2243 15.0097C76.2243 9.55613 72.6965 5.98611 67.2181 5.98611C61.7744 5.98611 58.2451 9.55613 58.2451 15.0097ZM92.8055 23.221H88.3416L88.3454 6.44214H92.8296V8.26452H92.8923C94.0549 6.54406 95.4801 5.98769 97.5856 5.98769C99.6292 5.98769 101.452 6.76901 102.331 8.78088C102.848 7.94075 103.568 7.24441 104.424 6.7562C105.281 6.26799 106.247 6.00367 107.233 5.98769C110.692 5.98769 113.174 7.64247 113.174 11.9916V23.224H108.711V13.712C108.711 11.4729 108.522 9.62263 105.977 9.62263C103.463 9.62263 102.991 11.7651 102.991 13.8743V23.2187H98.5277V13.8071C98.5277 13.7277 98.5279 13.6478 98.5281 13.5676C98.5331 11.6806 98.5385 9.62035 95.8251 9.62035C94.9426 9.62035 92.8055 10.2047 92.8055 13.4825V23.221Z" fill="black"/>
</svg>